<?xml version="1.0" standalone="no"?>
<!DOCTYPE svg PUBLIC "-//W3C//DTD SVG 20010904//EN"
 "http://www.w3.org/TR/2001/REC-SVG-20010904/DTD/svg10.dtd">
<svg version="1.0" xmlns="http://www.w3.org/2000/svg"
 width="200.000000pt" height="200.000000pt" viewBox="0 0 200.000000 200.000000"
 preserveAspectRatio="xMidYMid meet">

<g transform="translate(0.000000,200.000000) scale(0.100000,-0.100000)"
fill="#fff" stroke="#fff">
<path d="M1485 1820 c-182 -48 -334 -133 -528 -297 l-87 -75 -78 63 c-147 119
-466 309 -518 309 -29 0 -44 -20 -44 -58 0 -21 -4 -31 -11 -27 -5 4 -21 4 -35
1 -21 -6 -24 -12 -24 -49 0 -41 -1 -42 -32 -42 -32 0 -33 -1 -36 -50 -5 -95
36 -1217 46 -1227 5 -5 45 -17 90 -28 155 -37 355 -121 553 -231 l111 -62 222
71 c121 40 313 97 426 128 113 30 223 61 245 67 l40 12 6 128 c4 70 8 372 10
670 l4 542 -42 3 c-41 3 -43 5 -43 36 0 38 -15 56 -47 56 -19 0 -23 5 -23 28
0 15 -5 33 -12 40 -17 17 -112 14 -193 -8z m25 -84 c-83 -25 -160 -56 -220
-86 -22 -11 -40 -18 -40 -15 0 11 183 93 240 108 87 24 103 18 20 -7z m-964
-153 c69 -46 70 -52 2 -13 -29 17 -92 51 -140 76 -49 24 -88 49 -88 55 0 12
142 -62 226 -118z m1134 88 c0 -4 -28 -14 -62 -20 -90 -18 -254 -74 -338 -116
-40 -20 -69 -32 -66 -27 3 5 52 32 108 60 108 53 215 89 301 102 29 4 53 8 55
9 1 0 2 -3 2 -8z m-1299 -107 c163 -84 199 -111 54 -41 -60 29 -129 61 -152
70 -24 9 -43 21 -43 27 0 16 5 14 141 -56z m1406 -61 c-4 -58 -7 -213 -7 -344
l0 -237 -60 -4 c-33 -1 -60 -2 -60 0 0 1 12 25 26 53 14 28 23 53 20 56 -2 3
-30 -5 -61 -16 l-57 -22 6 38 c4 21 9 51 12 67 l6 29 -30 -22 c-26 -18 -32
-31 -42 -94 -6 -39 -13 -76 -15 -82 -11 -31 -1 55 36 296 22 149 38 273 35
277 -9 8 -220 -46 -292 -74 -33 -14 -76 -37 -94 -52 l-33 -28 53 -293 c29
-161 50 -294 48 -296 -2 -2 -17 62 -32 143 -36 191 -45 224 -56 217 -6 -4 -10
-31 -10 -61 0 -30 -4 -54 -10 -54 -5 0 -28 7 -50 16 -35 14 -38 18 -25 31 8 8
15 26 15 41 0 59 -23 202 -35 212 -9 7 -33 0 -85 -26 l-73 -37 7 -121 c4 -66
12 -126 18 -133 8 -10 21 -7 60 13 28 14 54 22 58 17 4 -4 12 -27 18 -50 l10
-43 -65 0 -64 0 31 -46 c18 -25 30 -48 27 -50 -3 -3 -27 -11 -55 -18 l-50 -14
-6 30 c-3 17 -6 81 -7 142 0 61 -4 143 -8 181 -9 82 -24 64 144 176 211 142
442 242 632 274 43 7 89 13 102 14 l24 1 -6 -107z m-1511 21 c203 -86 431
-210 525 -285 28 -22 35 -34 32 -53 -3 -14 3 -228 12 -476 9 -248 15 -453 13
-455 -2 -2 -14 188 -26 423 -31 579 -21 524 -96 576 -88 63 -239 145 -416 227
-85 39 -159 75 -164 80 -20 19 16 8 120 -37z m1220 -166 c-3 -18 -26 -172 -51
-343 -25 -171 -48 -321 -52 -335 -5 -20 -70 310 -117 596 -8 46 -5 49 119 90
99 33 109 32 101 -8z m-442 -154 c3 -26 6 -66 6 -89 0 -39 -3 -43 -40 -60 -22
-10 -42 -16 -44 -14 -2 2 -6 41 -9 86 l-6 83 37 19 c20 11 40 20 43 21 4 0 9
-21 13 -46z m463 -331 c-3 -10 -5 -4 -5 12 0 17 2 24 5 18 2 -7 2 -21 0 -30z
m258 -40 c-6 -33 -8 -34 -38 -27 -18 3 -34 8 -36 10 -3 3 13 23 35 45 43 44
52 38 39 -28z m-268 -30 c-3 -10 -5 -2 -5 17 0 19 2 27 5 18 2 -10 2 -26 0
-35z m-10 -60 c-3 -10 -5 -4 -5 12 0 17 2 24 5 18 2 -7 2 -21 0 -30z m-538 -2
l34 -28 -37 -21 c-21 -12 -39 -22 -42 -22 -2 0 -4 23 -4 50 0 28 3 50 8 50 4
0 22 -13 41 -29z m811 -37 c0 -50 1 -50 -53 -5 -16 13 -15 15 10 32 40 25 43
24 43 -27z m-483 4 c-3 -7 -5 -2 -5 12 0 14 2 19 5 13 2 -7 2 -19 0 -25z m200
-30 c-3 -7 -5 -2 -5 12 0 14 2 19 5 13 2 -7 2 -19 0 -25z m-190 -20 c-3 -7 -5
-2 -5 12 0 14 2 19 5 13 2 -7 2 -19 0 -25z m180 -40 c-3 -7 -5 -2 -5 12 0 14
2 19 5 13 2 -7 2 -19 0 -25z m-513 1 l38 -11 -38 -39 c-33 -34 -39 -37 -46
-22 -9 24 -10 83 0 83 4 0 24 -5 46 -11z m343 -11 c-3 -8 -6 -5 -6 6 -1 11 2
17 5 13 3 -3 4 -12 1 -19z m463 -105 l0 -128 -196 -53 c-108 -29 -198 -51
-201 -49 -4 5 26 87 37 100 3 4 25 -9 47 -28 23 -19 44 -35 47 -35 3 0 6 21 6
48 0 71 8 77 65 52 26 -11 50 -18 53 -15 3 3 -2 30 -10 61 l-16 56 64 -7 c35
-4 64 -4 64 0 0 3 -14 27 -31 51 -17 25 -29 47 -27 48 3 3 76 23 91 25 4 1 7
-56 7 -126z m-403 67 c26 6 51 6 67 0 17 -6 26 -5 30 3 3 8 5 7 5 -3 1 -12
-14 -15 -79 -15 -66 -1 -80 2 -80 15 0 10 3 11 8 3 5 -9 19 -9 49 -3z m54 -40
c21 -12 25 -50 7 -68 -7 -7 -28 -12 -48 -12 -41 0 -60 14 -60 47 0 37 57 56
101 33z m-391 -25 c0 -3 -11 -28 -25 -55 -14 -27 -25 -51 -25 -54 0 -3 25 4
57 15 31 10 58 17 61 14 3 -2 0 -28 -6 -57 -5 -29 -9 -54 -7 -56 2 -2 25 13
53 32 27 20 52 36 55 36 2 0 8 -25 12 -55 3 -30 10 -55 14 -55 4 0 22 20 41
45 19 25 37 45 40 45 4 0 19 -22 33 -49 l27 -48 -78 -23 c-42 -13 -137 -42
-211 -66 -74 -24 -136 -43 -137 -41 -2 1 -6 87 -10 190 l-7 187 57 0 c31 0 56
-2 56 -5z m-163 -357 c-3 -8 -6 -5 -6 6 -1 11 2 17 5 13 3 -3 4 -12 1 -19z"/>
</g>
</svg>
