<?xml version="1.0" encoding="UTF-8" standalone="no"?>
<!-- Generator: Adobe Illustrator 16.0.0, SVG Export Plug-In . SVG Version: 6.00 Build 0)  -->

<svg
   xmlns:dc="http://purl.org/dc/elements/1.1/"
   xmlns:cc="http://creativecommons.org/ns#"
   xmlns:rdf="http://www.w3.org/1999/02/22-rdf-syntax-ns#"
   xmlns:svg="http://www.w3.org/2000/svg"
   xmlns="http://www.w3.org/2000/svg"
   xmlns:sodipodi="http://sodipodi.sourceforge.net/DTD/sodipodi-0.dtd"
   xmlns:inkscape="http://www.inkscape.org/namespaces/inkscape"
   version="1.1"
   id="Layer_1"
   x="0px"
   y="0px"
   width="1000"
   height="360.36401"
   viewBox="-215.19 -86.608 1000 360.36402"
   enable-background="new -215.19 -86.608 1000 402.473"
   xml:space="preserve"
   inkscape:version="0.91 r13725"
   sodipodi:docname="Marvel Entertainment 2013 Wordmark.svg"><metadata
   id="metadata5392"><rdf:RDF><cc:Work
       rdf:about=""><dc:format>image/svg+xml</dc:format><dc:type
         rdf:resource="http://purl.org/dc/dcmitype/StillImage" /><dc:title></dc:title></cc:Work></rdf:RDF></metadata><defs
   id="defs5390">
	
	

		
	</defs><sodipodi:namedview
   pagecolor="#ffffff"
   bordercolor="#666666"
   borderopacity="1"
   objecttolerance="10"
   gridtolerance="10"
   guidetolerance="10"
   inkscape:pageopacity="0"
   inkscape:pageshadow="2"
   inkscape:window-width="1366"
   inkscape:window-height="705"
   id="namedview5388"
   showgrid="false"
   inkscape:zoom="0.584"
   inkscape:cx="755.77396"
   inkscape:cy="439.41553"
   inkscape:window-x="-8"
   inkscape:window-y="-8"
   inkscape:window-maximized="1"
   inkscape:current-layer="Layer_1" />
<path
   d="m 653.75595,-20.911835 0,-65.646916 -182.67177,0 -30.04159,219.312901 -29.72723,-219.311836 -65.87496,0 7.37959,58.519884 c -7.60871,-14.991491 -34.57911,-58.519884 -93.93233,-58.519884 -0.39109,-0.02557 -65.96448,0 -65.96448,0 L 192.67062,233.10805 144.65587,-86.557686 58.382328,-86.607771 8.7104925,244.60955 8.736068,-86.559817 l -82.569356,0 -29.766652,186.045595 -28.99407,-186.043464 -82.596,0 0,360.087776 65.0427,0 0,-173.561572 29.58656,173.557312 34.579111,0 29.170961,-173.557312 0,173.557312 125.391227,0 7.608704,-55.40821 50.483857,0 7.58313,55.40821 123.10435,0.0757 0.10017,0 0,-0.0757 0.0767,0 0.0767,0 0,-116.88525 15.09167,-2.19843 31.24364,119.15934 0.0767,0 63.52309,0 0.0746,0 -0.0256,-0.0757 0.11296,0 0.0767,0 -41.00068,-139.66022 c 20.77794,-15.36872 44.23811,-54.397972 37.9945,-91.734964 l 0,-0.02451 c 0.0746,0.505116 38.69996,231.649864 38.69996,231.649864 l 75.73004,-0.23017 51.74665,-326.389958 0,326.391018 122.80064,0 0,-64.76243 -58.29077,0 0,-82.58321 58.29077,0 0,-65.748152 -58.29077,0 0,-81.344933 58.28758,0 z M 83.851239,161.01611 101.70931,7.0719981 120.25153,161.01611 l -36.400291,0 z M 272.91687,89.933338 c -5.00533,2.42754 -10.22486,3.64131 -15.30585,3.64131 l 0,-115.825998 c 0.0885,0 0.19075,-0.02344 0.31649,-0.02344 5.09379,-0.02558 43.0723,1.540922 43.0723,57.303983 0,29.169895 -12.91668,47.549065 -28.08294,54.904145 m 511.89314,118.781032 0,64.76137 -119.79339,0 0,-360.083507 64.49921,0 0,295.322137 55.29418,0 z"
   id="path5386"
   inkscape:connector-curvature="0"
   style="fill:#fff" />
</svg>